<svg width="339" height="501" viewBox="0 0 339 501" fill="none" xmlns="http://www.w3.org/2000/svg">
<path d="M88.7129 67.4717C88.7129 73.4832 90.4859 78.0321 93.6816 81.0586C96.8407 84.0502 101.498 85.6572 107.633 85.6572C114.095 85.6572 118.949 84.04 122.221 81.0479C125.527 78.0236 127.343 73.4799 127.343 67.4717C127.343 45.2745 127.333 23.2352 117.299 1.14648L116.78 0.00390625H131.499V67.4717C131.499 75.668 129.145 82.174 124.504 86.6514C119.824 91.1662 112.926 93.5156 104.206 93.5156C94.8197 93.5156 87.3989 91.1862 82.3545 86.6777C77.3419 82.1974 74.8047 75.6796 74.8047 67.4717V0.00390625H88.7129V67.4717ZM163.05 0.0634766V0.0078125H171.365C183.264 0.0078125 192.091 1.34936 197.972 4.13184C203.95 6.96042 206.741 11.2079 206.741 16.6826C206.741 22.0601 204.165 26.4347 199.134 29.4463C194.807 32.0362 188.777 33.551 181.283 33.9111C186.618 36.1251 190.521 39.0272 193.562 42.9258C197.353 47.7882 199.776 54.1694 202.062 62.5918V62.5947C204.487 71.7083 206.316 78.7885 208.535 83.6025C209.645 86.0095 210.815 87.7614 212.123 88.9004C213.394 90.0075 214.752 90.5039 216.348 90.5039H219.568V93.1367H216.348C212.114 93.1367 208.506 92.4333 205.41 91.0391C202.322 89.6486 199.818 87.6041 197.71 85.0039C193.521 79.8357 190.79 72.3234 188.2 62.9307C185.592 53.5349 184.036 47.0542 181.453 42.3701C180.176 40.0539 178.668 38.2221 176.697 36.7256C174.729 35.2307 172.251 34.0337 168.969 33.0352L168.233 32.8115V32.8008C167.744 32.675 167.284 32.5397 166.854 32.4023V93.1367H152.946V0L163.05 0.0634766ZM60.7354 12.3184L58.6445 10.6328C51.4679 4.84858 44.0385 3.36933 37.2783 2.95605V93.1328H23.3701V2.95703C16.6283 3.3762 9.2691 4.90586 2.08691 10.6367L0 12.3018V0.00390625H60.7354V12.3184ZM236.556 0.78418C237.028 4.09935 238.84 7.45441 241.012 10.791L241.45 11.458L279.688 69.0938C279.196 46.3973 277.204 23.7033 269.429 1.08398L269.057 0.00390625H283.74V93.1328H280.292L232.208 20.375C232.518 44.3563 234.283 68.2696 242.5 92.0508L242.873 93.1328H228.188V14.3281L218.694 0.00390625H236.444L236.556 0.78418ZM165.652 92.2637H154.146V92.2666H165.655V31.0225C166.709 31.4046 167.938 31.8494 169.431 32.168V32.166C167.937 31.8474 166.707 31.4019 165.652 31.0195V92.2637ZM199.616 85.5781C203.59 89.9488 208.828 92.2666 216.348 92.2666H218.368V91.374H218.366V92.2637H216.346C208.827 92.2637 203.59 89.9472 199.616 85.5781ZM36.0771 92.2627H36.0781V2.02246H36.0771V92.2627ZM192.856 43.7988C196.354 48.4761 198.67 54.6071 200.883 62.7568C204.185 75.1708 206.422 83.9819 210.087 88.3164C206.423 83.9809 204.187 75.1712 200.885 62.7598C198.6 54.3472 196.207 48.0855 192.517 43.3535L192.856 43.7988ZM238.733 83.999C238.993 84.9071 239.261 85.8149 239.537 86.7227C239.261 85.8146 238.993 84.9064 238.733 83.998V83.999ZM76.0039 0.875H87.5127V67.4727C87.5127 79.7087 94.7172 86.5282 107.632 86.5283C116.088 86.5283 122.142 83.8642 125.493 78.8789V78.8779C122.142 83.863 116.089 86.5273 107.633 86.5273C94.718 86.5273 87.5137 79.7078 87.5137 67.4717V0.874023H76.0039V0.875ZM237.165 78.0908C237.444 79.2233 237.735 80.3553 238.039 81.4873C237.735 80.355 237.444 79.2226 237.165 78.0898V78.0908ZM126.104 77.8877C126.055 77.9741 126.007 78.0604 125.956 78.1455C126.007 78.0604 126.055 77.9741 126.104 77.8877ZM127.771 73.7744C127.463 74.9257 127.061 76.0036 126.57 77.0068C127.061 76.0038 127.463 74.9264 127.771 73.7754V73.7744ZM280.583 59.5889C280.779 64.0661 280.893 68.542 280.958 73.0156L280.96 73.0176C280.895 68.5433 280.779 64.0667 280.583 59.5889ZM130.299 67.4727C130.299 69.3483 130.172 71.1272 129.925 72.8066C130.172 71.1269 130.299 69.3477 130.299 67.4717V67.4727ZM128.198 71.8037C128.148 72.0999 128.093 72.3918 128.032 72.6797C128.093 72.3921 128.148 72.1006 128.198 71.8047V71.8037ZM128.521 68.6035C128.496 69.24 128.449 69.8608 128.383 70.4658C128.449 69.8611 128.496 69.2407 128.521 68.6045V68.6035ZM232.691 52.0547C233.311 57.8478 234.146 63.6376 235.266 69.4229C234.146 63.6373 233.311 57.8471 232.691 52.0537V52.0547ZM237.519 7.08984C238.345 8.68935 239.332 10.2755 240.37 11.8369L262.326 44.9307L240.37 11.8359C239.332 10.2746 238.345 8.68831 237.519 7.08887V7.08984ZM279.271 41.5244C279.384 42.5904 279.488 43.6567 279.587 44.7227C279.488 43.6567 279.384 42.5904 279.271 41.5244ZM169.433 32.2324C174.539 33.7859 177.891 35.8419 180.36 38.7891C177.892 35.8409 174.54 33.7843 169.433 32.2305V32.2324ZM202.98 9.07715C204.705 11.2044 205.539 13.7403 205.539 16.6797C205.539 27.0039 195.7 33.122 177.689 33.1221H176.371C176.374 33.1231 176.378 33.124 176.381 33.125H177.691C195.702 33.125 205.542 27.0068 205.542 16.6826C205.542 13.5798 204.613 10.926 202.688 8.72852L202.98 9.07715ZM166.854 29.5088C169.607 30.6402 173.147 31.2354 177.691 31.2354C182.666 31.2353 186.381 29.8777 188.89 27.4561C191.435 24.9992 192.833 21.3533 192.833 16.6826C192.833 11.9464 191.171 8.54307 187.817 6.30566C184.442 4.05405 179.128 2.83105 171.365 2.83105H166.854V29.5088ZM231.059 23.6045C231.103 25.9507 231.163 28.2967 231.244 30.6426C231.163 28.2964 231.103 25.95 231.059 23.6035V23.6045ZM165.652 30L165.655 30.001V1.96094H171.365C181.612 1.96094 188.095 4.04917 191.391 8.1709C188.095 4.04737 181.612 1.95801 171.363 1.95801H165.652V30ZM276.222 21.6133C276.615 23.5279 276.978 25.4425 277.31 27.3574C276.978 25.4425 276.615 23.5279 276.222 21.6133ZM275.45 18.0303C275.636 18.8501 275.814 19.6704 275.987 20.4902C275.813 19.6704 275.636 18.8501 275.45 18.0303ZM274.607 14.4824C274.728 14.9677 274.846 15.4532 274.962 15.9385C274.846 15.4532 274.728 14.9677 274.607 14.4824ZM274.083 12.4346C274.209 12.9147 274.333 13.3948 274.454 13.875C274.333 13.3948 274.209 12.9147 274.083 12.4346ZM1.19922 0.875H59.5342V10.0488L59.5361 10.0508V0.874023H1.19922V0.875ZM272.773 7.71973C272.952 8.32603 273.125 8.93269 273.296 9.53906C273.125 8.93269 272.952 8.32603 272.773 7.71973ZM3.72754 8.20508C3.5063 8.35284 3.28545 8.50437 3.06445 8.65918C3.28544 8.50436 3.50631 8.35285 3.72754 8.20508ZM201.336 7.39941C201.543 7.57671 201.742 7.75892 201.934 7.94336C201.743 7.75976 201.545 7.57788 201.339 7.40137L201.336 7.39941ZM236.033 3.64551C236.287 4.40276 236.596 5.15767 236.943 5.91113C236.595 5.1574 236.287 4.40206 236.033 3.64453V3.64551ZM271.438 3.40918C271.688 4.17804 271.932 4.94684 272.169 5.71582C271.932 4.94685 271.688 4.17804 271.438 3.40918ZM220.604 0.875H235.362C235.389 1.06259 235.421 1.24993 235.456 1.4375C235.421 1.2496 235.389 1.06194 235.362 0.874023H220.603L220.604 0.875ZM270.71 1.2207C270.671 1.10559 270.632 0.990112 270.593 0.875H282.541V0.874023H270.592C270.632 0.989496 270.671 1.10523 270.71 1.2207ZM118.438 0.875H130.299V0.874023H118.438V0.875Z" fill="#E4DCD8"/>
<path d="M175.506 271.035C183.119 271.035 189.483 273.835 194.127 278.91C198.745 283.957 201.695 291.276 202.639 300.466L202.676 300.828L187.335 313.255L187.839 310.447C190.008 298.364 189.084 289.102 186.478 282.901C185.173 279.8 183.467 277.511 181.577 276.013C179.699 274.524 177.685 273.848 175.685 273.848C173.416 273.848 171.242 274.741 169.201 276.664C167.154 278.594 165.349 281.469 163.86 285.177C160.887 292.582 159.265 303.077 159.265 315.318C159.265 329.272 161.4 339.682 165.182 346.572C168.969 353.471 174.242 356.599 180.405 356.599C185.124 356.599 189.273 354.312 192.588 349.565C195.898 344.825 198.216 337.823 199.323 328.889L199.421 328.099H203.46L203.35 329.037C202.051 340.077 198.933 348.893 194.265 354.977C189.59 361.069 183.24 364.552 175.506 364.552C165.707 364.552 158.067 359.857 152.942 351.751C147.821 343.651 145.075 331.976 145.075 317.54C145.075 303.199 147.822 291.648 152.945 283.649C158.076 275.64 165.718 271.035 175.506 271.035ZM19.2021 271.41C31.2163 271.41 40.0344 272.714 45.877 275.439C51.8223 278.213 54.5322 282.384 54.5322 287.765C54.5322 292.015 52.6837 295.602 49.0771 298.317C46.4057 300.328 42.8251 301.818 38.4521 302.759C45.2466 304.466 50.7571 307.618 54.749 312.017C59.6201 317.384 62.1914 324.559 62.1914 333.148C62.1914 342.672 58.3838 350.441 51.333 355.836C44.2725 361.239 34.0848 364.165 21.6064 364.165H1.0625V271.41H19.2021ZM138.189 364.165H123.838L113.417 334.396H87.2793C85.4252 344.009 84.5164 353.61 85.1201 363.26L85.1768 364.165H69.9697L96.8867 286.857V286.856L102.282 271.41H105.877L138.189 364.165ZM234.121 301.456L247.325 291.116C254.834 285.205 258.713 279.407 259.752 272.188L259.864 271.41H278.351L242.114 299.333C242.632 299.294 243.155 299.275 243.683 299.275C246.96 299.275 249.888 299.673 252.503 300.718C255.121 301.763 257.321 303.415 259.243 305.795C262.932 310.362 265.725 317.775 268.485 329.277L268.752 330.403C271.968 344.156 273.778 352.037 275.749 356.501C276.734 358.732 277.703 359.964 278.748 360.65C279.728 361.294 280.909 361.543 282.695 361.543H284.802V364.165H280.112C276.638 364.165 273.562 363.585 270.839 362.298C268.13 361.017 265.854 359.075 263.876 356.448C259.942 351.224 257.046 343.098 254.329 331.451C251.563 319.689 249.53 312.358 247.346 307.969C246.254 305.774 245.169 304.414 244.043 303.604C242.973 302.836 241.822 302.532 240.387 302.532C239.35 302.532 238.3 302.858 237.368 303.315C236.445 303.768 235.751 304.294 235.458 304.556L235.426 304.583L234.121 305.565V364.165H220.021V271.41H234.121V301.456ZM147.856 300.358C146.827 305.485 146.291 311.233 146.291 317.54C146.291 346.293 157.247 363.685 175.506 363.686C187.309 363.686 196.057 354.933 200.182 339.448C196.055 354.924 187.309 363.67 175.51 363.67C157.25 363.67 146.295 346.278 146.295 317.524C146.295 311.223 146.829 305.481 147.856 300.358ZM60.7041 337.4C58.5768 353.584 44.103 363.291 21.6074 363.291H2.2793V272.276H2.27832V363.299H21.6064C44.1054 363.299 58.5802 353.588 60.7041 337.4ZM71.5244 363.299H83.9053C83.9051 363.296 83.9054 363.294 83.9053 363.291H71.5273L71.5244 363.299ZM86.2217 333.522C86.0036 334.624 85.8004 335.727 85.6074 336.829C85.8 335.729 86.0031 334.629 86.2207 333.529H114.367L124.788 363.299H136.635L136.632 363.291H124.789L114.368 333.522H86.2217ZM221.236 363.299H232.904V363.291H221.241V272.276H221.236V363.299ZM240.392 301.658C237.63 301.658 235.225 303.372 234.513 304.007L232.909 305.213V305.216L234.508 304.014C235.22 303.379 237.626 301.665 240.387 301.665C247.334 301.665 250.006 307.822 255.528 331.308C260.962 354.603 267.019 363.299 280.112 363.299H283.586V363.291H280.116C267.023 363.291 260.966 354.595 255.533 331.301C250.011 307.816 247.339 301.658 240.392 301.658ZM15.1631 361.416H21.6064C29.638 361.416 36.1056 358.814 40.6143 354.018C45.1554 349.186 47.7353 342.091 47.7354 333.148C47.7354 323.865 45.5228 316.524 41.6309 311.536C37.7641 306.581 32.2925 303.992 25.6152 303.992C21.4344 303.992 18.0147 303.686 15.1631 302.964V361.416ZM48.7227 337.635C48.6989 337.863 48.674 338.091 48.6465 338.316C48.674 338.091 48.6988 337.863 48.7227 337.635ZM199.225 336.451C199.19 336.599 199.156 336.746 199.121 336.893C199.156 336.746 199.19 336.599 199.225 336.451ZM200.81 336.88C200.818 336.841 200.828 336.802 200.837 336.763L200.84 336.747C200.83 336.791 200.819 336.836 200.81 336.88ZM13.9473 301.665C16.8865 302.681 20.6275 303.125 25.6152 303.125C40.0444 303.125 48.9512 314.424 48.9512 333.148C48.9512 334.279 48.9105 335.382 48.8301 336.457C48.9109 335.38 48.9521 334.275 48.9521 333.142C48.9521 314.417 40.0446 303.118 25.6152 303.118C20.6275 303.118 16.8865 302.674 13.9473 301.658V301.665ZM60.8779 335.726C60.8657 335.884 60.8504 336.041 60.8359 336.198C60.8758 335.764 60.9091 335.326 60.9316 334.883L60.8779 335.726ZM200.535 328.965C200.243 331.322 199.865 333.551 199.407 335.646C199.866 333.551 200.243 331.322 200.536 328.965H200.535ZM98.8701 289.407C94.4225 303.243 89.8118 317.022 86.8496 330.797C89.8118 317.024 94.4223 303.249 98.8691 289.415L114.009 332.507H114.012L98.8701 289.407ZM98.9189 293.127C94.7559 306.026 90.599 318.839 87.8984 331.647H112.452L98.9189 293.127ZM175.688 272.966C168.616 272.966 163.413 280.138 160.558 291.668C163.413 280.147 168.615 272.98 175.685 272.98C185.393 272.981 193.409 286.247 189.045 310.558L201.426 300.528C201.425 300.524 201.424 300.521 201.424 300.517L189.049 310.542C193.413 286.232 185.397 272.966 175.688 272.966ZM53.2705 288.881C52.6446 296.373 45.679 301.282 33.4541 302.674C33.4619 302.675 33.4697 302.676 33.4775 302.677C45.6913 301.281 52.6489 296.372 53.2705 288.881ZM15.1631 300.075C17.7819 300.812 21.1315 301.18 25.6152 301.18C30.3534 301.18 33.9473 299.918 36.3896 297.682C38.8638 295.416 40.2529 292.057 40.2529 287.765C40.2529 283.096 38.6919 279.772 35.4482 277.597C32.1875 275.41 26.9887 274.223 19.2021 274.223H15.1631V300.075ZM238.343 300.96C238.345 300.959 238.347 300.958 238.35 300.957L275.569 272.276H275.565L238.343 300.96ZM148.542 297.314C148.315 298.213 148.108 299.134 147.915 300.075C148.035 299.49 148.159 298.913 148.292 298.344L148.542 297.314ZM13.9473 273.355H19.2021C35.0564 273.356 41.4697 278.18 41.4697 287.765C41.4697 287.961 41.4656 288.155 41.46 288.348C41.4657 288.153 41.4697 287.955 41.4697 287.757C41.4696 278.172 35.0564 273.349 19.2021 273.349H13.9473V273.355ZM260.962 272.276C260.495 275.522 259.466 278.49 257.816 281.306C259.468 278.49 260.498 275.523 260.966 272.276H260.962Z" fill="#E4DCD8"/>
<path d="M202.457 203.096C202.457 209.083 204.178 213.614 207.279 216.628C210.345 219.607 214.863 221.208 220.816 221.208C227.087 221.208 231.799 219.597 234.974 216.616C238.182 213.604 239.943 209.079 239.943 203.096C239.943 180.988 239.934 159.036 230.197 137.036L229.693 135.898H243.977V203.096C243.977 211.259 241.692 217.739 237.188 222.198C232.647 226.695 225.952 229.034 217.491 229.034C208.383 229.034 201.182 226.714 196.287 222.224C191.423 217.761 188.961 211.271 188.961 203.096V135.898H202.457V203.096ZM142.599 135.516C151.887 135.516 159.157 140.126 164.044 148.132C168.926 156.13 171.555 167.679 171.555 182.021C171.555 196.457 168.927 208.131 164.047 216.23C159.165 224.333 151.897 229.032 142.599 229.032C133.219 229.032 125.906 224.338 121.001 216.231C116.099 208.131 113.471 196.456 113.471 182.021C113.471 167.679 116.1 156.129 121.004 148.13C125.914 140.121 133.23 135.516 142.599 135.516ZM274.593 135.962V135.906H282.662C294.209 135.906 302.774 137.242 308.48 140.014C314.282 142.831 316.99 147.062 316.99 152.515C316.99 157.87 314.49 162.227 309.608 165.227C305.41 167.806 299.558 169.314 292.286 169.673C297.463 171.878 301.25 174.769 304.2 178.651C307.88 183.494 310.23 189.85 312.449 198.238L312.45 198.242C314.803 207.319 316.578 214.37 318.731 219.165C319.808 221.562 320.944 223.308 322.213 224.442C323.446 225.545 324.764 226.039 326.312 226.039H329.438V228.661H326.312C322.204 228.661 318.703 227.961 315.698 226.572C312.702 225.187 310.271 223.151 308.226 220.562C304.161 215.414 301.511 207.931 298.998 198.576C296.467 189.218 294.958 182.764 292.451 178.099C291.212 175.792 289.748 173.967 287.836 172.477C285.926 170.988 283.521 169.795 280.336 168.801L279.622 168.578V168.567C279.147 168.442 278.701 168.308 278.284 168.171V228.661H264.788V135.898L274.593 135.962ZM84.084 165.175C91.7355 155.696 97.281 146.094 96.7246 136.804L96.6709 135.898H112.218L86.1787 168.297V228.653H72.6826V169.188L45.6963 135.898H60.5244L84.084 165.175ZM140.73 228.095C141.344 228.14 141.967 228.166 142.599 228.166L142.6 228.165C141.967 228.165 141.344 228.14 140.73 228.095ZM219.084 228.138C219.041 228.139 218.999 228.141 218.956 228.143C218.999 228.141 219.041 228.139 219.084 228.138ZM222.047 227.912C221.511 227.975 220.965 228.027 220.409 228.066C220.965 228.027 221.511 227.975 222.047 227.912ZM138.081 227.75C138.413 227.813 138.747 227.868 139.085 227.916C138.747 227.867 138.413 227.813 138.081 227.75ZM265.952 227.795H277.12V227.787H265.952V227.795ZM280.786 168.002C294.001 172.128 295.109 179.808 300.139 198.406C305.169 217.131 310.626 227.795 326.312 227.795H328.273V227.787H326.312C310.626 227.787 305.17 217.123 300.14 198.398C295.11 179.801 294 172.121 280.786 167.995V168.002ZM85.0137 168.059V227.787H85.0146V168.058L85.0137 168.059ZM223.493 227.713C223.349 227.736 223.205 227.758 223.06 227.779C223.205 227.758 223.349 227.736 223.493 227.713ZM142.599 136.382C125.121 136.382 114.635 153.457 114.635 182.021C114.635 208.02 123.209 224.728 137.771 227.69C123.211 224.725 114.639 208.018 114.639 182.021C114.639 153.457 125.125 136.383 142.603 136.383C143.563 136.383 144.501 136.438 145.419 136.542C144.5 136.438 143.56 136.382 142.599 136.382ZM225.598 227.3C225.389 227.349 225.178 227.395 224.965 227.439C225.178 227.395 225.389 227.349 225.598 227.3ZM143.409 137.499C153.244 138.366 159.223 155.079 159.223 182.021C159.223 210.074 152.914 227.148 142.6 227.149L142.603 227.15C152.918 227.15 159.227 210.076 159.227 182.021C159.227 155.075 153.246 138.361 143.409 137.499ZM141.78 227.112C142.035 227.135 142.292 227.147 142.552 227.148C142.292 227.147 142.035 227.134 141.78 227.112ZM226.742 227.007C226.629 227.038 226.516 227.07 226.402 227.101C226.516 227.07 226.629 227.038 226.742 227.007ZM140.684 226.951C140.894 226.996 141.108 227.031 141.322 227.061C141.108 227.031 140.894 226.996 140.684 226.951ZM228.737 226.365C228.292 226.529 227.836 226.682 227.37 226.824C227.836 226.682 228.292 226.529 228.737 226.365ZM142.599 138.328C140.458 138.328 138.41 139.177 136.49 141.057C134.559 142.948 132.847 145.805 131.433 149.595C128.607 157.166 127.053 168.217 127.053 182.021C127.053 196.015 128.607 207.21 131.434 214.877C132.849 218.715 134.561 221.608 136.494 223.523C138.416 225.428 140.463 226.283 142.599 226.283C144.684 226.283 146.704 225.433 148.614 223.526C150.533 221.61 152.241 218.716 153.656 214.877C156.483 207.209 158.059 196.014 158.059 182.021C158.059 168.218 156.483 157.166 153.657 149.595C152.242 145.804 150.535 142.946 148.618 141.054C146.711 139.171 144.69 138.328 142.599 138.328ZM231.303 136.766H242.811V203.096C242.811 214.077 238.617 221.729 230.798 225.494C238.618 221.73 242.812 214.078 242.812 203.096V136.765H231.303V136.766ZM190.125 136.766H201.291V203.096C201.291 215.283 208.282 222.075 220.814 222.075C221.016 222.075 221.217 222.073 221.416 222.069C221.218 222.073 221.018 222.074 220.816 222.074C208.284 222.074 201.293 215.283 201.293 203.096V136.765H190.125V136.766ZM223.138 221.999C222.79 222.022 222.437 222.039 222.079 222.052C222.437 222.039 222.79 222.022 223.138 221.999ZM224.241 221.906C223.93 221.938 223.615 221.965 223.296 221.987C223.615 221.965 223.93 221.938 224.241 221.906ZM225.341 221.774C225.057 221.814 224.769 221.85 224.478 221.882C224.769 221.85 225.057 221.814 225.341 221.774ZM226.917 221.506C226.495 221.591 226.064 221.666 225.624 221.732C226.064 221.666 226.495 221.591 226.917 221.506ZM227.807 221.308C227.893 221.287 227.98 221.268 228.066 221.246L228.068 221.245C227.982 221.267 227.894 221.287 227.807 221.308ZM229.525 220.822C229.302 220.896 229.075 220.964 228.845 221.031C229.074 220.964 229.3 220.896 229.523 220.823L229.525 220.822ZM230.331 220.537C230.37 220.522 230.41 220.509 230.449 220.494L230.451 220.493C230.411 220.508 230.371 220.522 230.331 220.537ZM231.771 219.93C231.571 220.024 231.368 220.114 231.162 220.202C231.367 220.114 231.57 220.025 231.769 219.931L231.771 219.93ZM315.751 154.043C314.833 163.394 305.389 168.884 288.801 168.884H287.521C287.529 168.886 287.536 168.888 287.543 168.891H288.8C305.392 168.891 314.837 163.398 315.751 154.043ZM277.12 166.796C278.143 167.177 279.337 167.621 280.786 167.938V167.932C279.337 167.614 278.143 167.17 277.12 166.789V166.796ZM278.284 165.288C280.955 166.415 284.39 167.009 288.8 167.009C293.627 167.009 297.232 165.656 299.667 163.244C302.137 160.797 303.493 157.166 303.493 152.515C303.493 147.798 301.881 144.407 298.627 142.179C295.352 139.936 290.195 138.719 282.662 138.719H278.284V165.288ZM47.7598 136.766H59.8643L84.0771 166.852L59.8643 136.765H47.7588L47.7598 136.766ZM86.167 164.256C85.7307 164.812 85.2882 165.368 84.8379 165.923L85.5869 164.992C85.7821 164.747 85.9746 164.501 86.167 164.256ZM91.624 156.551C91.3872 156.931 91.1444 157.311 90.8975 157.69C91.1443 157.311 91.3873 156.932 91.624 156.552V156.551ZM315.825 152.511C315.825 152.915 315.809 153.313 315.779 153.705C315.809 153.315 315.826 152.918 315.826 152.515C315.826 152.513 315.825 152.512 315.825 152.511ZM277.12 137.852H282.662C297.493 137.852 304.2 142.476 304.634 151.553C304.203 142.471 297.497 137.845 282.662 137.845H277.12V137.852ZM97.085 144.462C96.9771 144.883 96.8605 145.304 96.7334 145.726C96.8605 145.304 96.9771 144.883 97.085 144.462ZM97.8877 136.766H110.163L110.164 136.765H97.8877V136.766Z" fill="#E4DCD8"/>
<path d="M90.6641 406.551C97.2659 406.551 103.496 407.638 108.577 410.293C113.651 412.945 117.433 417.085 119.386 423.025L119.525 423.449L101.837 435.528L102.368 432.815C104.064 424.169 103.512 418.229 101.259 414.489C100.142 412.636 98.6333 411.366 96.8379 410.556C95.0506 409.749 92.8676 409.348 90.251 409.348C86.5245 409.348 83.4023 410.237 81.1826 411.91C78.9399 413.601 77.5255 416.167 77.5254 419.597C77.5254 424.419 80.3714 429.029 84.7656 433.65C89.1684 438.281 95.0455 442.846 101.016 447.608C112.863 457.06 125.088 467.274 125.088 479.698C125.088 486.169 121.706 491.284 115.841 494.781C109.983 498.274 101.79 500.068 92.418 500.068C81.8994 500.068 73.1962 497.821 66.8262 493.468C60.4874 489.136 56.5733 482.799 55.3174 474.729L55.2598 474.358L72.9727 462.038L72.46 464.771C70.4606 475.437 71.6925 483.653 75.3447 489.16C78.9675 494.623 84.8811 497.334 92.418 497.334C97.3761 497.334 101.767 496.117 104.946 493.736C108.144 491.342 110.199 487.702 110.199 482.792C110.199 471.36 98.761 461.992 86.9219 452.695C81.0497 448.084 75.0846 443.487 70.6045 438.735C66.1144 433.973 63.0488 428.988 63.0488 423.574C63.0489 418.814 65.5468 414.55 70.3076 411.469C75.0799 408.38 82.0189 406.551 90.6641 406.551ZM159.487 437.067L174.783 426.783C183.481 420.904 187.973 415.137 189.177 407.958L189.307 407.184H210.721L168.747 434.956C169.347 434.918 169.952 434.898 170.562 434.898C174.359 434.898 177.751 435.294 180.78 436.333C183.813 437.373 186.361 439.016 188.588 441.383C192.861 445.925 196.095 453.298 199.293 464.738L199.603 465.858C203.328 479.537 205.425 487.376 207.708 491.815C208.849 494.035 209.971 495.26 211.182 495.942C212.317 496.583 213.684 496.831 215.753 496.831H218.193V499.438H212.761C208.736 499.438 205.173 498.861 202.02 497.581C198.882 496.307 196.246 494.376 193.954 491.764C189.397 486.567 186.042 478.485 182.896 466.9C179.692 455.202 177.337 447.911 174.807 443.545C173.542 441.362 172.285 440.009 170.98 439.204C169.742 438.44 168.408 438.138 166.745 438.138C165.545 438.138 164.329 438.462 163.249 438.917C162.18 439.367 161.376 439.889 161.036 440.149L160.999 440.178L159.487 441.154V499.438H143.154V407.184H159.487V437.067ZM245.892 499.438H229.559V407.184H245.892V499.438ZM283.588 407.957C284.143 411.241 286.27 414.564 288.821 417.869L289.337 418.53L334.241 475.625C333.664 453.142 331.323 430.661 322.192 408.254L321.757 407.184H339V499.438H334.95L278.482 427.363C278.846 451.12 280.92 474.809 290.569 498.367L291.008 499.438H273.763V421.373L262.613 407.184H283.458L283.588 407.957ZM56.7197 474.648C59.196 490.557 72.0929 499.206 92.418 499.206C103.351 499.206 112.45 496.688 117.961 491.942C112.449 496.686 103.352 499.204 92.4209 499.204C72.0957 499.204 59.1989 490.555 56.7227 474.646L56.7197 474.648ZM144.562 498.576H158.079V498.562H144.565V408.046H144.562V498.576ZM166.748 437.262C163.55 437.262 160.764 438.965 159.938 439.597L158.081 440.797V440.809L159.936 439.611C160.761 438.98 163.547 437.275 166.745 437.275C174.793 437.275 177.888 443.399 184.285 466.758C190.579 489.927 197.594 498.576 212.761 498.576H216.784V498.562H212.764C197.597 498.562 190.581 489.913 184.287 466.744C177.89 443.386 174.795 437.262 166.748 437.262ZM230.967 498.576H244.483V498.562H230.971V408.046H230.967V498.576ZM275.171 421.177V498.576H289.203C289.201 498.572 289.199 498.567 289.197 498.562H275.173V421.163L264.867 408.046H264.854L275.171 421.177ZM277.03 423.515L335.837 498.576H337.591V498.562H335.839L277.03 423.498C277.03 423.503 277.03 423.509 277.03 423.515ZM67.6484 415.217C65.5556 417.633 64.4581 420.48 64.458 423.574C64.458 444.408 111.608 459.244 111.608 482.792C111.608 487.446 109.811 491.08 106.825 493.647C109.813 491.08 111.611 487.444 111.611 482.789C111.611 459.241 64.4615 444.405 64.4609 423.572C64.4609 420.479 65.5572 417.632 67.6484 415.217ZM323.56 408.046C333.256 431.841 335.32 455.699 335.733 479.494L335.735 479.496C335.323 455.7 333.261 431.842 323.567 408.046H323.56ZM164.375 436.566C164.386 436.563 164.396 436.56 164.407 436.557L207.499 408.046H207.479L164.375 436.566ZM90.2539 408.483C86.1527 408.483 82.6378 409.466 80.1387 411.329C82.6376 409.467 86.1515 408.486 90.251 408.486C101.703 408.486 107.171 415.557 103.767 432.918L118.005 423.195L103.77 432.915C107.174 415.554 101.706 408.483 90.2539 408.483ZM69.0137 413.826C68.6472 414.156 68.3032 414.497 67.9795 414.847C68.3031 414.497 68.6473 414.156 69.0137 413.826ZM79.2021 412.112L79.1992 412.115C79.2195 412.096 79.2403 412.078 79.2607 412.059C79.2413 412.077 79.2214 412.094 79.2021 412.112ZM80.0156 411.423C79.885 411.523 79.7567 411.625 79.6318 411.73C79.7567 411.625 79.8849 411.523 80.0156 411.423Z" fill="#E4DCD8"/>
</svg>
